<?xml-stylesheet version="1.0" encoding="utf-8" href="./democristan.css"?>
<!-- Generator: Adobe Illustrator 23.1.1, SVG Export Plug-In . SVG Version: 6.00 Build 0)  -->
<svg version="1.1" id="Layer_1" xmlns="http://www.w3.org/2000/svg" xmlns:xlink="http://www.w3.org/1999/xlink" x="0px" y="0px"
	 viewBox="0 0 351.51 359.51" style="enable-background:new 0 0 351.51 359.51;" xml:space="preserve">
<g>
	<g id="country">
		<path d="M174.91,229.75c-1.6,0.25-2.94,1.05-4.4,1.67c-1.68,0.71-3.45,0.7-5.24,0.5c-3.91-0.45-7.82-1.4-11.69-2.12
			c-8.01-1.49-16.02-2.98-24.03-4.47c-7.7-1.43-15.43-2.74-23.09-4.32c-3.16-0.65-6.57-1.44-9.01-3.71c-2.24-2.08-3.55-4.9-5.08-7.5
			c-2.05-3.49-4.37-6.8-6.86-9.98c-1.19-1.52-2.69-2.98-3.78-4.47c-0.08-0.11-0.14-0.3-0.24-0.4c-0.05-0.09-0.1-0.17-0.15-0.26
			c0.18,0.46,0.22,0.51,0.14,0.14c0.07-0.36-0.1-1.05-0.24-1.39c-0.36-0.92-1.27-1.99-2.41-1.84c-7.67,1.01-15.71,0.67-22.59-3.21
			c-3.69-2.08-6.85-5.01-9.37-8.4c-2.73-3.68-4.37-7.92-6.82-11.76c-1.25-1.95-2.73-3.73-4.55-5.16c-1.99-1.56-4.37-2.38-6.43-3.82
			c-1.81-1.26-2.25-3.2-2.4-5.29c-0.21-2.91-0.31-5.82-0.47-8.73c-0.32-6.03-0.64-12.05-0.96-18.08c-0.31-5.8-0.96-11.72-0.51-17.52
			c0.68-8.81,5.92-16.11,12.2-21.98c6.97-6.52,15.19-11.58,23.42-16.33c4.51-2.61,9.05-5.23,13.72-7.55
			c5.11-2.54,10.45-4.24,15.99-5.58c11.7-2.83,23.47-5.41,35.21-8.1c11.52-2.64,23.04-5.69,34.69-7.71
			c5.62-0.98,11.36-1.52,17.07-1.06c5.15,0.42,10,1.99,14.72,4.03c5.15,2.23,10.2,4.64,15.53,6.44c5.23,1.77,10.6,3.11,16.04,4.04
			c5.51,0.94,11.05,1.42,16.64,1.65c4.33,0.18,9.33,0.31,11.72,4.52c1.05,1.85,1.7,3.91,2.75,5.76c0.94,1.66,2.15,3.19,3.48,4.55
			c2.72,2.77,6.04,4.94,9.41,6.84c6.97,3.94,14.74,6.8,21.07,11.8c8.05,6.36,11.07,16.89,13.38,26.46
			c1.33,5.55,2.24,11.19,2.65,16.88c0.41,5.6-0.23,11.35,0.64,16.9c0.87,5.51,4.45,9.6,7.19,14.26c2.53,4.3,4.13,9.17,4.44,14.17
			c0.31,5-0.55,10.1-2.62,14.67c-1.96,4.32-4.74,8.24-7.65,11.97c-3.06,3.93-6.29,7.72-9.26,11.72c-1.4,1.89-2.74,3.83-3.93,5.86
			c-1.07,1.83-2.59,4.16-2.9,6.28c-0.24,1.58,0.04,3.35,0.08,4.95c0.08,2.89,0.16,5.77,0.24,8.66c0.04,1.45,0.12,2.91,0.12,4.37
			c0,1.35,1.15,2.5,2.5,2.5c0,0,0.01,0,0.01,0c-0.83-0.83-1.67-1.67-2.5-2.5c0,2.9,0.55,5.91,0.81,8.8c0.19,2.07,0.38,4.13,0.57,6.2
			c0.09,0.94,0.44,2.22,0.29,3.16c-0.01,0.07-0.06-0.19-0.07-0.14c-0.08,0.49-0.35,1.04-0.53,1.5c-0.37,0.97-0.78,1.92-1.23,2.86
			c-0.93,1.97-1.95,3.88-3,5.79c-1.99,3.65-4.06,7.26-6.2,10.82c-4.44,7.38-9.18,14.56-14.21,21.54c-2.41,3.35-4.85,6.71-7.45,9.92
			c-1.89,2.34-4.13,4.52-7.35,4.44c-5.03-0.12-7.01-6.54-7.57-10.51c-1.06-7.52-2.56-14.73-5.36-21.82
			c-2.82-7.14-6.48-13.92-10.9-20.2c-10.55-15.01-24.78-27.13-40.74-36.08c-2.81-1.58-5.33,2.74-2.52,4.32
			c14.59,8.19,27.83,19.09,37.75,32.63c4.67,6.37,8.68,13.3,11.59,20.66c1.42,3.58,2.59,7.26,3.5,11.01
			c0.87,3.57,1.3,7.16,1.85,10.79c0.85,5.56,3.62,11.78,9.34,13.7c3.26,1.1,7.09,0.38,9.89-1.54c3.18-2.18,5.37-5.51,7.66-8.54
			c5.39-7.11,10.49-14.45,15.26-22c4.66-7.38,9.36-14.96,13.01-22.91c1.06-2.31,2.42-4.75,2.18-7.34c-0.19-2.09-0.39-4.17-0.58-6.26
			c-0.23-2.47-0.46-4.94-0.69-7.41c-0.1-1.12-0.31-2.28-0.31-3.41c0-1.35-1.15-2.5-2.5-2.5c0,0-0.01,0-0.01,0
			c0.83,0.83,1.67,1.67,2.5,2.5c0-4.55-0.25-9.11-0.37-13.66c-0.03-1.05-0.06-2.09-0.09-3.14c-0.01-0.23-0.05-0.49-0.02-0.71
			c0.02-0.16,0.06-0.08,0.02,0.03c-0.13,0.38,0.14-0.17,0.21-0.3c0.15-0.28,0.26-0.58,0.4-0.87c2.05-4.33,4.94-8.23,7.9-11.98
			c6.29-7.94,13.52-15.73,16.47-25.65c3.06-10.31,1.12-21.42-4.66-30.4c-1.48-2.3-3.13-4.51-4.35-6.96
			c-1.23-2.47-1.54-5.15-1.59-7.88c-0.1-5.87-0.06-11.66-0.77-17.5c-0.73-5.94-1.88-11.82-3.53-17.57
			c-1.48-5.18-3.21-10.46-5.9-15.16c-4.67-8.15-12.48-12.7-20.61-16.81c-3.71-1.87-7.46-3.68-11.01-5.84
			c-3.04-1.86-6.14-4.05-8.2-7.01c-2.6-3.72-3.29-8.35-7.14-11.18c-4.16-3.06-9.84-2.87-14.76-3.09
			c-11.38-0.51-22.69-2.81-33.32-6.94c-5.17-2.01-10.08-4.62-15.29-6.52c-5.35-1.96-11.01-2.81-16.7-2.77
			c-11.97,0.08-23.76,3.45-35.35,6.11c-12.08,2.77-24.16,5.54-36.24,8.32c-5.94,1.36-11.95,2.57-17.79,4.31
			c-5.6,1.66-10.86,4.13-15.97,6.93c-8.94,4.88-17.91,9.94-26.09,16.05c-7.22,5.4-14.29,11.84-18.18,20.14
			c-4.83,10.3-2.93,21.98-2.35,32.96c0.33,6.22,0.66,12.44,0.99,18.66c0.14,2.65,0.07,5.46,0.77,8.04c0.7,2.59,2.29,4.61,4.53,6.05
			c2.06,1.32,4.43,2.1,6.26,3.77c1.66,1.5,2.85,3.35,3.92,5.3c2.33,4.27,4.42,8.46,7.58,12.22c5.69,6.77,13.55,10.78,22.27,11.84
			c4.01,0.49,8.07,0.31,12.07-0.21c-0.8-0.61-1.61-1.22-2.41-1.84c0.33,0.85,0.2,1.68,0.65,2.52c0.72,1.36,1.92,2.43,2.9,3.6
			c2.46,2.92,4.71,6.01,6.75,9.24c1.83,2.9,3.31,6.04,5.43,8.74c2.24,2.86,5.18,4.7,8.61,5.84c3.69,1.23,7.64,1.75,11.45,2.46
			c4.2,0.78,8.39,1.56,12.59,2.34c8.39,1.56,16.78,3.12,25.17,4.68c4.69,0.87,9.38,1.91,14.1,2.57c2.19,0.31,4.44,0.43,6.61-0.13
			c1.94-0.5,3.58-1.75,5.57-2.06c1.33-0.21,2.08-1.88,1.75-3.08C177.6,230.08,176.25,229.54,174.91,229.75L174.91,229.75z"/>
	</g>
</g>
<g>
	<g id="region-1">
		<path d="M204.79,105.99c-7.45-3.54-14.16-10.65-16.37-18.7c-1.26-4.56-0.31-9.3,0.63-13.83c1-4.81,1.86-9.63,2.51-14.51
			c0.75-5.59,1.3-11.2,1.66-16.82c0.08-1.19-0.85-2-1.84-2.41c-7.89-3.27-16.15-4.24-24.63-3.48c-8.65,0.78-17.1,2.89-25.54,4.83
			c-17.42,3.99-34.87,7.84-52.25,12c-4.11,0.98-8.18,2.1-12.1,3.69c-3.91,1.59-7.65,3.52-11.33,5.57
			c-6.43,3.56-12.83,7.19-18.96,11.24c-10.8,7.15-22.27,16.34-25.97,29.34c-1.12,3.94-1.32,8.07-1.2,12.15
			c0.13,4.42,0.44,8.83,0.67,13.25c0.24,4.56,0.48,9.12,0.73,13.68c0.22,4.25,0.26,8.56,0.71,12.79c0.2,1.87,0.57,3.73,1.55,5.36
			c0.99,1.66,2.5,2.88,4.16,3.82c1.55,0.88,3.23,1.56,4.68,2.62c1.19,0.88,2.23,2.01,3.08,3.22c1.85,2.67,3.09,5.7,4.71,8.52
			c1.77,3.1,3.96,6.03,6.46,8.57c4.37,4.43,9.92,7.59,15.98,9c6.18,1.44,12.55,1.2,18.77,0.2c15.3-2.47,29.32-9.55,43.72-14.88
			c0.83-0.31,1.67-0.58,2.49-0.9c1.25-0.48,1.69-1.52,2.32-2.61c0.95-1.63,1.96-3.22,3.02-4.78c2.08-3.05,4.37-5.94,6.82-8.71
			c5.03-5.7,10.63-10.86,16.42-15.77c6.15-5.23,12.51-10.22,18.8-15.27c6.75-5.42,13.42-10.98,20.31-16.22
			c3.19-2.42,6.48-4.7,9.99-6.64c2.82-1.55,0.3-5.87-2.52-4.32c-6.25,3.45-11.8,7.99-17.35,12.44c-6.01,4.82-12.02,9.64-18.04,14.46
			c-10.25,8.22-20.69,16.36-29.6,26.06c-4.96,5.39-9.43,11.27-12.99,17.69c0.5-0.38,1-0.77,1.49-1.15
			c-11.04,3.88-21.65,8.92-32.82,12.47c-9.36,2.98-19.8,5.38-29.51,3.12c-9.49-2.21-16.28-9.01-20.65-17.5
			c-2.44-4.74-4.92-9.41-9.72-12.17c-2.05-1.18-4.92-1.99-5.98-4.3c-1.11-2.4-0.81-5.6-0.94-8.17c-0.36-6.8-0.72-13.59-1.08-20.39
			c-0.35-6.57-1.18-13.34-0.52-19.91c0.97-9.72,7.68-17.52,14.84-23.59c8.38-7.1,18.1-12.52,27.66-17.85
			c5.49-3.06,11.04-5.9,17.09-7.69c6.32-1.87,12.82-3.16,19.24-4.64c13.21-3.03,26.42-6.06,39.63-9.09
			c12.39-2.84,25.63-6.62,38.39-3.99c2.97,0.61,5.84,1.6,8.63,2.75c-0.61-0.8-1.22-1.61-1.84-2.41
			c-0.67,10.26-2.01,20.39-4.09,30.46c-1.05,5.09-1.95,10.36-0.67,15.5c1.15,4.63,3.67,8.83,6.67,12.5c3.28,4,7.45,7.49,12.13,9.72
			c1.22,0.58,2.7,0.34,3.42-0.9C206.32,108.33,206.02,106.58,204.79,105.99z"/>
	</g>
	<text x="75" y="125" font-family="Verdana" font-size="20" fill="blue">Test</text>
</g>
<g>
	<g id="region-2">
		<path d="M232.88,129.52c-7.43-6.12-14.85-12.25-22.28-18.37c-1.57-1.29-3.13-2.58-4.7-3.87c-0.34-0.28-0.68-0.56-1.02-0.84
			c-1.29-1.04-2.96-1.66-4.34-2.59c-4-2.68-7.44-6.34-9.91-10.46c-1.22-2.03-2.2-4.16-2.79-6.46c-0.61-2.37-0.6-4.74-0.36-7.16
			c0.33-3.32,1.16-6.58,1.82-9.85c0.57-2.85,1.04-5.71,1.44-8.58c0.91-6.38,1.57-12.79,1.99-19.22c-1.05,0.8-2.11,1.61-3.16,2.41
			c4.45,1.78,8.72,3.98,13.2,5.7c4.6,1.76,9.32,3.18,14.12,4.26c4.88,1.11,9.85,1.87,14.84,2.33c4.42,0.41,9.07,0.08,13.42,1.02
			c1.82,0.4,3.53,1.05,4.79,2.47c1.2,1.36,1.86,3.18,2.58,4.83c1.39,3.18,3.39,5.94,6,8.24c5.38,4.74,12.06,7.67,18.38,10.9
			c6.6,3.38,13.09,7.07,17.05,13.57c2.33,3.82,3.81,8.07,5.13,12.32c1.52,4.88,2.7,9.86,3.53,14.9c0.82,5.01,1.25,10.08,1.32,15.15
			c0.07,5.03-0.42,10.2,1.56,14.95c1.81,4.35,5,7.9,7.11,12.08c1.97,3.89,3.15,8.23,3.36,12.59c0.21,4.37-0.5,8.67-2.05,12.76
			c-1.47,3.89-3.82,7.45-6.27,10.79c-5.04,6.9-11.1,13.11-15.37,20.55c-1.03,1.8-1.92,3.67-2.66,5.6c1.64,0.22,3.27,0.44,4.91,0.66
			c-0.03-1.14,0-2.28-0.3-3.39c-0.6-2.23-1.5-4.4-2.57-6.45c-2.09-4.04-4.93-7.64-7.81-11.14c-2.87-3.49-5.86-6.88-8.71-10.38
			c-1.34-1.65-2.6-3.37-3.64-5.23c-0.43-0.78-0.84-1.58-1.14-2.42c-0.18-0.49-0.33-0.99-0.47-1.49c-0.17-0.59,0.01,0.24-0.06-0.11
			c-0.02-0.12,0-0.27-0.02-0.4c-0.06-0.51-0.17-0.97-0.28-1.47c-0.07-0.34-0.09-0.72-0.05-0.2c-0.02-0.38-0.05-0.75-0.08-1.13
			c-0.09-1.25-0.17-2.5-0.26-3.75c-0.02-0.33-0.09-0.69-0.07-1.03c-0.03,0.59,0.14-0.27,0.19-0.48c0.12-0.57,0.21-1.14,0.28-1.71
			c0.23-1.81,0.14-3.67-0.35-5.44c-0.97-3.45-3.31-6.26-5.79-8.76c-2.74-2.77-5.66-5.34-8.14-8.36
			c-7.46-9.05-14.69-18.3-22.26-27.26c0.13,1.01,0.26,2.02,0.39,3.03c0-0.01,0.01-0.01,0.01-0.02c0.46-0.93,0.48-2.29-0.39-3.03
			C232.96,129.6,232.92,129.56,232.88,129.52c-1.03-0.87-2.52-1.01-3.54,0c-0.89,0.89-1.04,2.66,0,3.54
			c0.04,0.04,0.09,0.07,0.13,0.11c-0.13-1.01-0.26-2.02-0.39-3.03c0,0.01-0.01,0.01-0.01,0.02c-0.54,1.08-0.37,2.13,0.39,3.03
			c6.55,7.75,12.85,15.73,19.26,23.59c2.77,3.39,5.56,6.63,8.72,9.67c2.4,2.31,4.94,4.54,6.4,7.51c0.55,1.12,0.85,2.53,0.83,3.87
			c-0.02,1.4-0.62,2.72-0.59,4.09c0.04,1.89,0.2,3.82,0.39,5.7c0.05,0.49,0.13,0.99,0.23,1.47c0.04,0.2,0.11,0.39,0.14,0.59
			c0-0.03-0.06-0.47-0.02-0.15c0.12,0.99,0.31,1.9,0.64,2.85c0.73,2.06,1.74,4.01,2.96,5.83c2.49,3.72,5.57,7.02,8.43,10.46
			c3.13,3.76,6.38,7.44,8.97,11.61c1.25,2.01,2.35,4.11,3.1,6.35c0.2,0.58,0.39,1.17,0.53,1.76c-0.1-0.43,0.03,0.25,0.03,0.44
			c0.01,0.47,0.03,0.95,0.04,1.42c0.08,2.94,3.92,3.23,4.91,0.66c3.01-7.84,9.18-14.24,14.3-20.74
			c5.69-7.22,10.72-14.82,11.94-24.13c1.24-9.47-1.56-18.49-6.8-26.33c-1.32-1.98-2.74-3.96-3.69-6.15
			c-0.96-2.21-1.21-4.61-1.26-6.99c-0.11-5.12,0-10.19-0.51-15.3c-1.01-10.13-3.24-20.36-7.14-29.79c-1.8-4.35-4.12-8.46-7.44-11.85
			c-2.59-2.65-5.71-4.78-8.89-6.65c-6.36-3.72-13.28-6.44-19.44-10.51c-2.5-1.65-5.08-3.76-6.7-6.12c-2.18-3.18-2.9-7.18-5.73-9.95
			c-3.36-3.28-8.22-3.84-12.69-4.06c-4.85-0.24-9.66-0.47-14.47-1.2c-9.88-1.5-19.36-4.43-28.45-8.54
			c-2.18-0.99-4.36-1.99-6.58-2.88c-1.62-0.65-3.07,0.96-3.16,2.41c-0.37,5.62-0.9,11.23-1.66,16.81
			c-0.78,5.69-2.09,11.25-3.05,16.91c-0.48,2.82-0.89,5.75-0.64,8.61c0.22,2.53,0.86,4.95,1.84,7.3c2.02,4.83,5.24,9.17,9.09,12.7
			c1.88,1.72,3.93,3.3,6.12,4.6c0.46,0.28,0.94,0.54,1.42,0.79c0.13,0.07,1.08,0.46,0.46,0.09c0.1,0.06,0.18,0.16,0.27,0.22
			c1.29,0.93,2.48,2.05,3.71,3.06c4.71,3.88,9.41,7.76,14.12,11.64c3.32,2.74,6.64,5.47,9.95,8.21c1.04,0.86,2.52,1.02,3.54,0
			C233.76,132.18,233.92,130.39,232.88,129.52z"/>
	</g>
</g>
<g>
	<g id="region-3">
		<path d="M201.78,105.98c-6.25,3.45-11.8,7.99-17.35,12.44c-6.01,4.82-12.02,9.64-18.04,14.46c-10.25,8.22-20.69,16.36-29.6,26.06
			c-4.96,5.39-9.43,11.27-12.99,17.69c0.5-0.38,1-0.77,1.49-1.15c-15.85,5.58-31.05,13.69-47.87,16.03
			c-1.78,0.25-2.05,2.39-1.49,3.67c-0.25-0.58-0.17-0.27-0.11,0.12c0.04,0.27,0.06,0.55,0.12,0.81c0.11,0.47,0.32,0.88,0.56,1.29
			c0.95,1.59,2.43,2.92,3.6,4.36c2.61,3.19,4.96,6.59,7.06,10.14c1.83,3.08,3.42,6.39,6.1,8.85c3.02,2.76,6.92,4.03,10.86,4.86
			c8.94,1.88,17.98,3.37,26.97,5.04c9.04,1.68,18.09,3.36,27.13,5.05c2.44,0.45,4.9,1,7.38,1.14c2.52,0.14,4.79-0.38,7.06-1.45
			c1.86-0.88,3.2-1.2,5.18-0.39c1.08,0.44,2.11,1.01,3.14,1.55c0.57,0.29,1.13,0.59,1.7,0.9c0.21,0.11,0.42,0.23,0.63,0.34
			c-0.03-0.02,1.11,0.66,0.76,0.31c2.28,2.28,5.81-1.26,3.54-3.54c-1.02-1.02-2.42-1.81-3.58-2.67c-1.15-0.85-2.31-1.71-3.46-2.56
			c0.38,0.5,0.77,1,1.15,1.49c-1.01-6.76,1.59-13.95,4.05-20.13c2.87-7.22,6.25-14.27,9.8-21.17c3.37-6.55,6.91-13.03,10.8-19.29
			c0.82-1.33,1.71-2.55,3.12-3.28c1.66-0.86,3.27-1.47,4.53-2.94c2.34-2.71,4.07-6.07,5.91-9.12c4.48-7.42,8.75-14.97,13.34-22.33
			c0.54-0.86,0.44-2.35-0.39-3.03c-8.21-6.77-16.41-13.53-24.62-20.3c-1.15-0.95-2.3-1.9-3.45-2.85c-1.04-0.86-2.52-1.02-3.54,0
			c-0.88,0.88-1.05,2.67,0,3.54c8.21,6.77,16.41,13.53,24.62,20.3c1.15,0.95,2.3,1.9,3.45,2.85c-0.13-1.01-0.26-2.02-0.39-3.03
			c-4.98,7.98-9.58,16.18-14.48,24.21c-1.13,1.85-2.24,3.71-3.45,5.5c-0.45,0.66-0.95,1.3-1.63,1.73c-0.93,0.59-2.02,0.88-2.96,1.46
			c-3.58,2.2-5.55,6.65-7.59,10.16c-4.84,8.34-9.29,16.91-13.31,25.68c-3.77,8.23-7.67,16.74-8.76,25.82
			c-0.28,2.35-0.39,4.85,0.07,7.19c0.27,1.37,1.38,2,2.42,2.77c1.1,0.82,2.21,1.64,3.31,2.45c0.47,0.35,0.94,0.7,1.41,1.05
			c0.32,0.24,0.93,0.89,0.08,0.05c2.28,2.28,5.81-1.26,3.54-3.54c-0.63-0.63-1.62-1.01-2.4-1.43c-1.06-0.57-2.13-1.13-3.2-1.66
			c-1.96-0.98-4-1.93-6.24-2.01c-2.04-0.07-3.83,0.77-5.62,1.62c-1.74,0.82-3.54,0.89-5.44,0.69c-4.34-0.46-8.68-1.55-12.97-2.35
			c-4.56-0.85-9.13-1.7-13.69-2.55c-8.96-1.67-17.93-3.33-26.89-5c-3.87-0.72-8.15-1.15-11.72-2.92c-3.17-1.57-4.95-4.32-6.64-7.31
			c-2.25-3.97-4.74-7.77-7.54-11.38c-0.72-0.92-1.44-1.84-2.19-2.74c-0.39-0.47-0.79-0.94-1.19-1.4c-0.2-0.23-0.4-0.47-0.61-0.69
			c-0.02-0.02-0.47-0.52-0.26-0.24c-0.12-0.16-0.21-0.53-0.37-0.63c0.1,0.06,0.15,0.68,0.1,0.01c-0.05-0.68-0.21-1.29-0.48-1.92
			c-0.5,1.22-1,2.45-1.49,3.67c10.01-1.39,19.6-4.91,28.95-8.62c4.5-1.78,8.98-3.65,13.49-5.4c0.98-0.38,1.95-0.75,2.93-1.11
			c1.1-0.41,2.76-0.7,3.6-1.54c0.84-0.84,1.36-2.22,1.97-3.23c0.65-1.07,1.33-2.13,2.03-3.17c11.15-16.53,27.89-28.56,43.24-40.88
			c5.01-4.02,10.01-8.04,15.03-12.05c4.56-3.64,9.18-7.21,14.3-10.03C207.12,108.75,204.6,104.43,201.78,105.98z"/>
	</g>
</g>
<g>
	<g id="region-4">
		<path d="M238.43,196.8c5.19-0.62,10.27-1.78,15.37-2.89c4.74-1.03,9.47-2.06,14.21-3.09c1.32-0.29,2.09-1.82,1.75-3.08
			c-0.38-1.38-1.75-2.02-3.08-1.75c-8.45,1.72-16.9,3.44-25.35,5.17c-0.85,0.17-1.69,0.35-2.54,0.52c-0.47,0.1-1.69,0.12-0.36,0.12
			C235.2,191.8,235.2,196.8,238.43,196.8C238.42,196.8,238.43,196.8,238.43,196.8c3.22,0,3.22-5,0-5c-1.87,0-3.75,0.34-5.64,0.32
			c-1.8-0.01-3.6-0.14-5.37-0.49c-3.64-0.71-7.17-2.03-10.57-3.47c-6.24-2.64-12.34-6.11-19.01-7.55c0.37,0.21,0.74,0.43,1.1,0.64
			c-0.19-0.15-0.36-0.32-0.54-0.47c0.13,1.01,0.26,2.02,0.39,3.03c1.14-1.71,2.01-3.69,3.02-5.49c0.94-1.67,1.9-3.32,2.87-4.96
			c0.92-1.55,1.78-3.24,2.91-4.66c1.24-1.57,2.9-1.94,4.54-2.93c1.79-1.08,2.96-2.78,4.07-4.5c1.11-1.74,2.2-3.5,3.27-5.26
			c2.23-3.67,4.4-7.37,6.58-11.07c2.45-4.15,4.9-8.3,7.45-12.39c-1.31,0.17-2.62,0.34-3.93,0.51c0.04,0.04,0.09,0.07,0.13,0.11
			c-0.13-1.01-0.26-2.02-0.39-3.03c0,0.01-0.01,0.01-0.01,0.02c-0.54,1.08-0.37,2.13,0.39,3.03c7.82,9.25,15.09,18.98,23,28.15
			c2.89,3.35,6.37,6.11,9.25,9.46c2.43,2.82,3.55,5.85,2.59,9.6c-0.37,1.44-0.13,2.87-0.03,4.34c0.1,1.46,0.16,2.91,0.43,4.35
			c0.24,1.33,1.86,2.08,3.08,1.75c1.4-0.38,1.99-1.74,1.75-3.08c-0.03-0.16-0.13-0.98-0.05-0.16c0-0.03,0-0.07-0.01-0.1
			c-0.02-0.2-0.03-0.41-0.04-0.61c-0.05-0.72-0.1-1.44-0.15-2.16c-0.05-0.68-0.09-1.36-0.14-2.04c-0.02-0.26-0.03-0.52-0.05-0.78
			c-0.02-0.3,0.05-0.31-0.01,0c0.47-2.45,0.79-4.68,0.28-7.17c-0.41-1.95-1.33-3.82-2.49-5.43c-2.62-3.64-6.14-6.47-9.22-9.7
			c-4.25-4.46-7.96-9.52-11.85-14.29c-4.26-5.22-8.45-10.52-12.8-15.66c0.13,1.01,0.26,2.02,0.39,3.03c0-0.01,0.01-0.01,0.01-0.02
			c0.46-0.93,0.48-2.29-0.39-3.03c-0.04-0.04-0.09-0.07-0.13-0.11c-1.24-1.05-3.02-0.94-3.93,0.51
			c-4.51,7.23-8.72,14.65-13.11,21.95c-1.08,1.8-2.18,3.59-3.29,5.37c-0.88,1.4-1.72,3.22-3.17,4.12c-0.82,0.51-1.76,0.79-2.6,1.25
			c-0.89,0.48-1.71,1.13-2.41,1.86c-1.39,1.45-2.4,3.23-3.43,4.95c-1.1,1.83-2.18,3.68-3.24,5.54c-1.16,2.04-2.14,4.28-3.44,6.23
			c-0.57,0.85-0.41,2.35,0.39,3.03c0.52,0.44,0.97,0.9,1.64,1.11c0.78,0.25,1.62,0.38,2.42,0.62c1.72,0.51,3.4,1.15,5.05,1.84
			c3.45,1.44,6.81,3.08,10.25,4.55c3.69,1.58,7.47,3.09,11.41,3.93c2.19,0.47,4.45,0.71,6.7,0.76
			C234.37,197.16,236.4,196.8,238.43,196.8c3.22,0,3.22-5,0-5c0,0-0.01,0-0.01,0C235.2,191.8,235.2,196.8,238.43,196.8
			c1.06,0,2.24-0.41,3.28-0.62c2.27-0.46,4.55-0.93,6.82-1.39c5.25-1.07,10.5-2.14,15.75-3.21c1.24-0.25,2.48-0.51,3.72-0.76
			c-0.44-1.61-0.89-3.21-1.33-4.82c-4.6,1.01-9.2,2-13.79,3c-4.79,1.04-9.58,2.22-14.45,2.8c-1.34,0.16-2.5,1.04-2.5,2.5
			C235.93,195.53,237.08,196.96,238.43,196.8L238.43,196.8z"/>
	</g>
</g>
<g>
	<g id="region-5">
		<path d="M194.47,183.81c3.47,5.66,6.95,11.31,10.42,16.97c5.51,8.97,11.02,17.94,16.53,26.9c1.27,2.06,2.53,4.12,3.8,6.18
			c1.13,1.83,3.97,1.49,4.57-0.6c3.22-11.17,6.44-22.35,9.66-33.52c0.46-1.59,0.92-3.19,1.38-4.78c-0.8,0.61-1.61,1.22-2.41,1.84
			c0,0,0.01,0,0.01,0c3.22,0,3.22-5,0-5c-1.87,0-3.75,0.34-5.64,0.32c-1.8-0.01-3.6-0.14-5.37-0.49c-3.64-0.71-7.17-2.03-10.57-3.47
			c-6.24-2.64-12.34-6.11-19.01-7.55c0.37,0.21,0.74,0.43,1.1,0.64c-0.19-0.15-0.36-0.32-0.54-0.47c-1.03-0.87-2.52-1.01-3.54,0
			c-0.89,0.89-1.04,2.66,0,3.54c0.52,0.44,0.97,0.9,1.64,1.11c0.78,0.25,1.62,0.38,2.42,0.62c1.72,0.51,3.4,1.15,5.05,1.84
			c3.45,1.44,6.81,3.08,10.25,4.55c3.69,1.58,7.47,3.09,11.41,3.93c2.19,0.47,4.45,0.71,6.7,0.76c2.05,0.04,4.08-0.32,6.11-0.32
			c3.22,0,3.22-5,0-5c0,0-0.01,0-0.01,0c-1.11,0-2.11,0.78-2.41,1.84c-3.22,11.17-6.44,22.35-9.66,33.52
			c-0.46,1.59-0.92,3.19-1.38,4.78c1.52-0.2,3.05-0.4,4.57-0.6c-3.47-5.66-6.95-11.31-10.42-16.97
			c-5.51-8.97-11.02-17.94-16.53-26.9c-1.27-2.06-2.53-4.12-3.8-6.18C197.11,178.55,192.78,181.06,194.47,183.81z"/>
	</g>
</g>
<g>
	<g id="region-6">
		<path d="M183.84,238.1c0.76,0.76,1.97,1.22,2.89,1.76c1.04,0.61,2.08,1.24,3.11,1.88c2.03,1.26,4.03,2.58,5.99,3.96
			c3.78,2.65,7.39,5.51,10.84,8.58c1.45,1.29,2.79,2.79,4.34,3.95c0.68,0.52,1.38,1.02,2.07,1.53c1.56,1.16,3.12,2.31,4.69,3.47
			c1.62,1.2,3.7-0.45,3.76-2.16c0.24-6.26,1.85-12.33,3.98-18.2c1.07-2.96,2.28-5.87,3.51-8.76c0.48-1.11,0.49-2.04-0.09-3.04
			c-1.78-3.09-3.74-6.09-5.61-9.13c-6.59-10.73-13.19-21.46-19.78-32.19c-1.73-2.81-3.45-5.62-5.18-8.43c-0.95-1.55-3.4-1.69-4.32,0
			c-5.02,9.27-9.69,18.81-13.53,28.63c-1.77,4.54-3.24,9.2-3.88,14.04c-0.29,2.18-0.41,4.38-0.17,6.57c0.15,1.34,0.27,2.28,1.4,3.13
			c0.24,0.18,0.49,0.37,0.74,0.55c1.92,1.42,3.83,2.84,5.75,4.26c1.09,0.8,2.79,0.18,3.42-0.9c0.74-1.27,0.19-2.61-0.9-3.42
			c-2.17-1.61-4.35-3.22-6.52-4.83c0.38,0.5,0.77,1,1.15,1.49c-0.55-3.7,0.11-7.55,1.04-11.13c0.99-3.82,2.37-7.53,3.9-11.17
			c3.54-8.43,7.57-16.66,11.92-24.7c-1.44,0-2.88,0-4.32,0c3.47,5.66,6.95,11.31,10.42,16.97c5.51,8.97,11.02,17.94,16.53,26.9
			c1.27,2.06,2.53,4.12,3.8,6.18c0-0.84,0-1.68,0-2.52c-4.09,9.5-7.88,19.24-8.27,29.7c1.25-0.72,2.51-1.44,3.76-2.16
			c-1.56-1.16-3.12-2.31-4.69-3.47c-0.67-0.49-1.39-0.95-2.02-1.49c-0.09-0.08-0.17-0.24,0.08,0.01c-0.41-0.4-0.82-0.79-1.24-1.18
			c-0.84-0.79-1.69-1.56-2.55-2.32c-3.44-3.05-7.06-5.9-10.8-8.56c-1.95-1.38-3.93-2.72-5.95-3.99c-1.02-0.64-2.05-1.28-3.09-1.89
			c-0.52-0.31-1.05-0.62-1.57-0.92c-0.15-0.08-1.41-0.84-1.09-0.52C185.1,232.29,181.56,235.82,183.84,238.1z"/>
	</g>
</g>
<g>
	<g id="region-7">
		<path d="M224.87,234.43c7.48,7.14,16.21,13,25.64,17.25c8.97,4.04,18.55,6.19,27.78,9.48c4.99,1.77,9.84,3.97,14.12,7.11
			c1.58,1.16,3.76-0.41,3.76-2.16c0,0,0-0.01,0-0.01c0-3.22-5-3.22-5,0c0-0.62-0.22,0.3-0.27,0.45c-0.1,0.29-0.21,0.58-0.32,0.88
			c-0.23,0.6-0.47,1.2-0.73,1.79c-0.61,1.37-1.28,2.72-1.98,4.06c-1.32,2.53-2.71,5.02-4.12,7.5c-2.78,4.88-5.7,9.68-8.74,14.4
			c-3.08,4.77-6.29,9.46-9.63,14.06c-1.71,2.35-3.44,4.68-5.21,6.99c-1.37,1.79-2.74,3.77-4.57,5.15c-1.47,1.11-3.31,1.68-5.16,1.43
			c-1.23-0.17-2.46-0.91-3.44-1.96c-0.92-0.99-1.83-2.66-2.31-3.96c-0.28-0.78-0.52-1.57-0.72-2.38c-0.1-0.42-0.19-0.83-0.27-1.25
			c-0.03-0.18-0.07-0.37-0.1-0.55c0-0.02-0.12-0.82-0.07-0.41c-0.65-5.02-1.49-9.94-2.94-14.8c-1.45-4.89-3.36-9.65-5.62-14.23
			c-5.32-10.81-12.75-20.53-21.35-28.95c-1.01,1.31-2.02,2.62-3.03,3.93c2.27,1.68,4.55,3.37,6.82,5.05c1.62,1.2,3.7-0.45,3.76-2.16
			c0.36-9.52,3.87-18.53,7.59-27.18c0.53-1.24,0.37-2.68-0.9-3.42c-1.05-0.62-2.88-0.35-3.42,0.9c-4.09,9.5-7.88,19.24-8.27,29.7
			c1.25-0.72,2.51-1.44,3.76-2.16c-2.27-1.68-4.55-3.37-6.82-5.05c-2.31-1.71-5.02,1.98-3.03,3.93c7.96,7.8,14.81,16.69,19.91,26.62
			c2.39,4.66,4.35,9.52,5.83,14.54c1.43,4.87,2.13,9.76,2.9,14.75c0.59,3.79,2.02,7.65,4.63,10.52c3.06,3.37,7.95,4.46,12.18,2.78
			c4.97-1.98,8-7.03,11.07-11.13c3.61-4.81,7.08-9.72,10.4-14.73c3.67-5.52,7.16-11.16,10.46-16.9c1.65-2.87,3.27-5.77,4.8-8.71
			c0.8-1.54,1.56-3.11,2.24-4.71c0.6-1.4,1.63-3.22,1.63-4.77c0-3.22-5-3.22-5,0c0,0,0,0.01,0,0.01c1.25-0.72,2.51-1.44,3.76-2.16
			c-7.73-5.67-17.2-8.37-26.26-11.09c-4.61-1.39-9.23-2.79-13.69-4.64c-4.58-1.91-8.99-4.24-13.19-6.89
			c-4.81-3.03-9.29-6.51-13.4-10.43C226.08,228.67,222.54,232.2,224.87,234.43z"/>
	</g>
</g>
<g>
	<g id="region-8">
		<path d="M264.41,189.09c0.01,0.03,0.24,1.07,0.12,0.33c0.02,0.13-0.01,0.28,0,0.41c0.07,0.87,0.35,1.73,0.64,2.55
			c0.55,1.56,1.26,3.06,2.11,4.49c1.62,2.73,3.68,5.18,5.73,7.59c4.12,4.84,8.49,9.62,11.97,14.95c1.66,2.55,3.09,5.26,3.96,8.19
			c0-0.01,0.35,1.28,0.23,0.57c0.03,0.17,0.01,0.37,0.02,0.54c0.01,0.28,0.02,0.55,0.02,0.83c0.01,0.32,0.02,0.64,0.03,0.96
			c0.08,2.94,0.16,5.87,0.24,8.81c0.08,2.85,0.23,5.72,0.23,8.58c0,1.35,1.15,2.5,2.5,2.5c0,0,0.01,0,0.01,0
			c-0.83-0.83-1.67-1.67-2.5-2.5c0,0.91,0.17,1.85,0.25,2.75c0.2,2.11,0.39,4.22,0.59,6.33c0.2,2.11,0.39,4.22,0.59,6.33
			c0.08,0.9,0.25,1.84,0.25,2.75c1.67,0,3.33,0,5,0c-0.56-6.06-1.13-12.11-1.69-18.17c-1.42,0.59-2.85,1.18-4.27,1.77
			c0,0,0.01,0.01,0.01,0.01c-0.24-0.59-0.49-1.18-0.73-1.77c0.07,2.97,0.51,5.95,0.79,8.91c0.2,2.12,0.41,4.24,0.61,6.36
			c0.09,0.95,0.28,1.94,0.28,2.89c1.25-0.72,2.51-1.44,3.76-2.16c-7.73-5.67-17.2-8.37-26.26-11.09c-4.61-1.39-9.23-2.79-13.69-4.64
			c-4.58-1.91-8.99-4.24-13.19-6.89c-4.81-3.03-9.29-6.51-13.4-10.43c0.21,0.81,0.43,1.62,0.64,2.43
			c3.22-11.17,6.44-22.35,9.66-33.52c0.46-1.59,0.92-3.19,1.38-4.78c-0.8,0.61-1.61,1.22-2.41,1.84c0,0,0.01,0,0.01,0
			c3.22,0,3.22-5,0-5c0,0-0.01,0-0.01,0c-3.22,0-3.22,5,0,5c1.23,0,2.52-0.32,3.73-0.51c1.33-0.21,2.66-0.46,3.99-0.73
			c2.49-0.5,4.97-1.06,7.45-1.6c4.8-1.05,9.61-2.09,14.42-3.14c1.32-0.29,2.09-1.82,1.75-3.08c-0.38-1.38-1.75-2.02-3.08-1.75
			c-8.45,1.72-16.9,3.44-25.35,5.17c-1.19,0.24-2.37,0.48-3.56,0.72c-1.32,0.27-2.09,1.84-1.75,3.08c0.38,1.38,1.75,2.02,3.08,1.75
			c8.45-1.72,16.9-3.44,25.35-5.17c1.19-0.24,2.37-0.48,3.56-0.72c-0.44-1.61-0.89-3.21-1.33-4.82c-4.67,1.02-9.34,2.03-14,3.05
			c-2.31,0.5-4.61,1.02-6.93,1.5c-1.32,0.27-2.65,0.53-3.98,0.76c-1.07,0.18-2.25,0.49-3.34,0.49c-3.22,0-3.22,5,0,5
			c0,0,0.01,0,0.01,0c3.22,0,3.22-5,0-5c0,0-0.01,0-0.01,0c-1.11,0-2.11,0.78-2.41,1.84c-3.22,11.17-6.44,22.35-9.66,33.52
			c-0.46,1.59-0.92,3.19-1.38,4.78c-0.24,0.84,0.01,1.83,0.64,2.43c7.48,7.14,16.21,13,25.64,17.25c8.97,4.04,18.55,6.19,27.78,9.48
			c4.99,1.77,9.84,3.97,14.12,7.11c1.58,1.16,3.76-0.41,3.76-2.16c0-1.02-0.2-2.07-0.3-3.09c-0.21-2.22-0.43-4.44-0.64-6.66
			c-0.19-2-0.38-3.99-0.58-5.99c-0.13-1.31,0.02-3.28-0.91-4.2c-1.43-1.43-4.48-0.46-4.27,1.77c0.56,6.06,1.13,12.11,1.69,18.17
			c0.13,1.34,1.06,2.5,2.5,2.5c1.36,0,2.5-1.14,2.5-2.5c0-0.91-0.17-1.85-0.25-2.75c-0.2-2.11-0.39-4.22-0.59-6.33
			c-0.2-2.11-0.39-4.22-0.59-6.33c-0.08-0.9-0.25-1.84-0.25-2.75c0-1.35-1.15-2.5-2.5-2.5c0,0-0.01,0-0.01,0
			c0.83,0.83,1.67,1.67,2.5,2.5c0-5.67-0.31-11.35-0.46-17.01c-0.02-0.8-0.03-1.59-0.07-2.39c-0.16-3-1.79-6.21-3.2-8.8
			c-3.14-5.74-7.63-10.66-11.8-15.67c-2.2-2.64-4.56-5.17-6.51-8.01c-0.91-1.33-1.77-2.74-2.4-4.23c-0.71-1.68-0.63-2.29-1.04-4.02
			C268.49,184.63,263.66,185.95,264.41,189.09L264.41,189.09z"/>
	</g>
</g>
<g>
	<g id="region-9">
		<path d="M184.79,238.25C184.79,238.25,184.8,238.26,184.79,238.25c0.94,0.94,2.63,1,3.55,0.01c0.92-1,0.99-2.55,0-3.54
			c-0.5-0.5-1.37-0.75-2.04-1.02c-0.87-0.34-1.74-0.69-2.62-1.03c-2-0.79-4.01-1.58-6.01-2.37c-0.47-0.19-0.95-0.37-1.42-0.56
			c0,1.61,0,3.21,0,4.82c-0.89,0.18-0.04,0.04,0.2,0.05c0.09,0,0.79,0.01,0.14-0.01c0.45,0.01,0.95,0.2,1.37,0.34
			c0.25,0.08,0.53,0.16,0.76,0.28c-0.38-0.2-0.05-0.02,0.15,0.07c0.43,0.2,0.86,0.41,1.28,0.62c1.74,0.87,3.45,1.78,5.14,2.72
			c1.14,0.63,2.78,0.31,3.42-0.9c0.62-1.18,0.32-2.74-0.9-3.42c-1.88-1.04-3.77-2.06-5.7-3c-2.22-1.08-4.69-2.08-7.21-1.57
			c-1.03,0.21-1.88,1.38-1.84,2.41c0.05,1.19,0.76,1.99,1.84,2.41c3.2,1.26,6.4,2.52,9.59,3.77c0.46,0.18,0.92,0.36,1.39,0.55
			C185.53,238.68,185.16,238.46,184.79,238.25C184.79,238.25,184.8,238.26,184.79,238.25c0.94,0.94,2.63,1,3.55,0.01
			c0.92-1,0.99-2.55,0-3.54c0,0-0.01-0.01-0.01-0.01c-0.93-0.93-2.62-0.99-3.54,0C183.88,235.71,183.8,237.26,184.79,238.25
			L184.79,238.25z"/>
	</g>
</g>
<g>
	<g id="region-10">
		<path d="M291.48,249.82c0,0,0.01,0.01,0.01,0.01c-0.24-0.59-0.49-1.18-0.73-1.77c0.04,1.98,0.31,3.96,0.5,5.92
			c0.32,3.32,0.64,6.64,0.96,9.96c0.07,0.75,0.22,1.53,0.22,2.28c0,1.35,1.15,2.5,2.5,2.5c1.36,0,2.5-1.14,2.5-2.5
			c0-0.63-0.12-1.28-0.18-1.91c-0.15-1.55-0.3-3.11-0.45-4.66c-0.31-3.18-0.61-6.36-0.92-9.54c-0.12-1.25,0.04-2.92-0.87-3.83
			c-0.95-0.95-2.58-0.95-3.54,0C290.52,247.24,290.52,248.86,291.48,249.82L291.48,249.82z"/>
	</g>
</g>
</svg>
